<svg id="Solid" enable-background="new 0 0 64 64" height="512" viewBox="0 0 64 64" width="512" xmlns="http://www.w3.org/2000/svg"><path d="m43.736 53.679 2.139 2.032 9.415-9.415-2.139-2.033z"/><path d="m63.689 54.275-6.949-6.601-9.415 9.415 6.986 6.636c.186.176.433.275.689.275 4.962 0 9-4.038 9-9 0-.274-.112-.536-.311-.725z"/><path d="m19.699 29.86-.44 2.638 2.639-.879z"/><path d="m28.741 32.498-.44-2.638-2.199 1.759z"/><path d="m29 12.972v-1h-5.833c-1.304 0-2.416.836-2.829 2h7.662c.551 0 1-.449 1-1z"/><path d="m10 22h2v2h-2z"/><path d="m27.503 27.889-1.917-1.917h-3.172l-1.917 1.917 3.503 2.802z"/><path d="m34 18h2v2h-2z"/><path d="m44.662 36.199c2.12-3.577 3.338-7.748 3.338-12.199 0-13.233-10.767-24-24-24s-24 10.767-24 24 10.767 24 24 24c3.948 0 7.676-.958 10.964-2.654l7.321 6.955 9.415-9.415zm-20.662 7.801c-11.028 0-20-8.972-20-20 0-3.842 1.092-7.574 3.159-10.792l1.683 1.081c-1.86 2.895-2.842 6.253-2.842 9.711 0 9.925 8.075 18 18 18s18-8.075 18-18-8.075-18-18-18c-5.432 0-10.52 2.417-13.957 6.632l-1.55-1.264c3.819-4.682 9.471-7.368 15.507-7.368 11.028 0 20 8.972 20 20s-8.972 20-20 20zm-10-22v2h-2v2h-2v-2h-2v-2h2v-2h2v2zm4-1.028v-6c0-2.757 2.243-5 5-5h7c.552 0 1 .448 1 1v2c0 1.654-1.346 3-3 3h-8v5c0 1.654 1.346 3 3 3h2c1.654 0 3-1.346 3-3v-3h2v3c0 1.784-.939 3.352-2.349 4.237l2.056 2.056c.005.005.01.01.014.015.005.005.01.011.016.016.009.01.018.02.027.031l4.9 3.267c.836.557 1.336 1.49 1.336 2.496v1.882h-2v-1.882c0-.335-.167-.646-.445-.832l-3.18-2.12.612 3.669c.058.346-.07.697-.337.925-.184.157-.415.24-.649.24-.106 0-.213-.017-.316-.051l-5.685-1.895-5.684 1.895c-.104.035-.21.051-.316.051-.235 0-.466-.083-.649-.24-.267-.228-.395-.579-.337-.925l.604-3.624-3.184 2.188c-.272.187-.434.495-.434.824v1.805h-2v-1.805c0-.988.486-1.912 1.3-2.472l4.927-3.386c.003-.003.005-.006.008-.009.009-.011.018-.021.028-.032.005-.006.01-.011.016-.016.005-.005.01-.01.014-.015l2.056-2.056c-1.41-.885-2.349-2.453-2.349-4.237zm20-2.972v2h-2v2h-2v-2h-2v-2h2v-2h2v2z"/><path d="m56 8h-10.264c2.556 3.463 4.306 7.557 4.968 12h5.296z"/><path d="m36.361 0c2.936 1.518 5.559 3.56 7.746 6h12.893c.552 0 1 .448 1 1v14c0 .552-.448 1-1 1h-6.074c.049.66.074 1.327.074 2 0 .669-.025 1.336-.075 2h7.075v2h-7.299c-.203 1.356-.509 2.693-.915 4h8.214v2h-8.922c-.215.538-.447 1.07-.697 1.594l13.619 12.938v-47.532c0-.552-.448-1-1-1z"/><path d="m40.771 55h-8.771v-2h6.665l-4.29-4.075c-3.271 1.362-6.818 2.075-10.375 2.075-3.531 0-6.906-.682-10-1.92v13.92c0 .552.448 1 1 1h35.245zm-22.771-2h12v2h-12zm6 8h-6v-2h6zm2 0v-2h16v2z"/></svg>