<svg id="Solid" enable-background="new 0 0 64 64" height="512" viewBox="0 0 64 64" width="512" xmlns="http://www.w3.org/2000/svg"><path d="m56.14 15.956 3.478-6.956h-8.618v7h-10v6h18.767z"/><path d="m49 2h-15.333l-.667-2h-2l-1 3v27h4v-16h15z"/><path d="m26 42v1c0 1.463 1.052 2.684 2.44 2.947l-1.184-3.947z"/><path d="m44 31.941h-24v32.117h24zm-4 11.059c0 2.757-2.243 5-5 5h-.056l-.386 1.287c-.127.423-.517.713-.958.713h-.6v3h2c.553 0 1 .447 1 1v4c0 .553-.447 1-1 1h-6c-.552 0-1-.447-1-1v-4c0-.553.448-1 1-1h2v-3h-.6c-.441 0-.831-.29-.958-.713l-.386-1.287h-.056c-2.757 0-5-2.243-5-5v-2c0-.553.448-1 1-1h2v-2c0-.553.448-1 1-1h8c.553 0 1 .447 1 1v2h2c.553 0 1 .447 1 1z"/><path d="m29 40.854 2.144 7.146h1.711l2.145-7.146v-1.854h-6z"/><path d="m35.56 45.947c1.387-.263 2.44-1.484 2.44-2.947v-1h-1.256z"/><path d="m46 40v24h14v-24zm11 20h-2v-2h2zm0-4h-2v-8h2zm0-10h-2v-2h2z"/><path d="m30 55h4v2h-4z"/><path d="m18 40h-14v24h14zm-9 20h-2v-2h2zm0-4h-2v-8h2zm-2-10v-2h2v2z"/></svg>